HIERARCHY
ROOT Hips
{
	OFFSET 0.000000 0.000000 0.000000
	CHANNELS 6 Xposition Yposition Zposition Zrotation Yrotation Xrotation 
	JOINT LHipJoint
	{
		OFFSET 0.000000 0.000000 0.000000
		CHANNELS 3 Zrotation Yrotation Xrotation
		JOINT LeftUpLeg
		{
			OFFSET 1.363060 -1.794630 0.839290
			CHANNELS 3 Zrotation Yrotation Xrotation
			JOINT LeftLeg
			{
				OFFSET 2.448110 -6.726130 0.000000
				CHANNELS 3 Zrotation Yrotation Xrotation
				JOINT LeftFoot
				{
					OFFSET 2.562200 -7.039590 0.000000
					CHANNELS 3 Zrotation Yrotation Xrotation
					JOINT LeftToeBase
					{
						OFFSET 0.157640 -0.433110 2.322550
						CHANNELS 3 Zrotation Yrotation Xrotation
						End Site
						{
							OFFSET 0.000000 0.000000 0.000000
						}
					}
				}
			}
		}
	}
	JOINT RHipJoint
	{
		OFFSET 0.000000 0.000000 0.000000
		CHANNELS 3 Zrotation Yrotation Xrotation
		JOINT RightUpLeg
		{
			OFFSET -1.305520 -1.794630 0.839290
			CHANNELS 3 Zrotation Yrotation Xrotation
			JOINT RightLeg
			{
				OFFSET -2.542530 -6.985550 0.000000
				CHANNELS 3 Zrotation Yrotation Xrotation
				JOINT RightFoot
				{
					OFFSET -2.568260 -7.056230 0.000000
					CHANNELS 3 Zrotation Yrotation Xrotation
					JOINT RightToeBase
					{
						OFFSET -0.164730 -0.452590 2.363150
						CHANNELS 3 Zrotation Yrotation Xrotation
						End Site
						{
							OFFSET 0.000000 0.000000 0.000000
						}
					}
				}
			}
		}
	}
}
MOTION
Frames: 25
Frame Time: 0.008333
10.670071 20.920756 0.931391 37.272831 -88.420479 -15.427054 -11.079188 2.649997 3.306675 -8.027644 2.540027 -29.389243 -0.396266 0.701462 20.459002 1.579429 6.717798 34.236686 3.981500 -0.000000 -59.306500 10.647605 -2.084204 1.500008 5.232551 -10.469779 -25.152577 1.993142 -0.398667 10.402987 -0.347735 -3.432504 20.691238 -2.180800 -0.000001 -81.146100
10.529159 20.995828 0.919875 37.418036 -88.457752 -15.278506 -11.033480 2.544887 3.261164 -8.314856 2.450552 -30.185437 -0.488079 0.677898 19.552688 1.537725 6.907149 33.960132 4.134500 0.000000 -59.152100 10.588036 -1.984694 1.593019 5.426539 -10.144165 -25.880954 2.176892 -0.261233 9.076185 -0.239884 -2.977040 20.203132 -1.989900 0.000000 -81.210100
10.388800 21.058978 0.908337 37.598052 -88.515850 -15.172563 -10.988007 2.440913 3.218816 -8.575090 2.353217 -30.954332 -0.587541 0.649805 18.586049 1.488588 7.036686 33.639912 4.246200 -0.000000 -59.081200 10.522964 -1.881309 1.694950 5.613299 -9.771354 -26.639040 2.353068 -0.123938 7.871457 -0.135681 -2.524884 19.630048 -1.800500 0.000000 -81.234400
10.248521 21.110168 0.896815 37.827926 -88.589783 -15.123315 -10.941832 2.339264 3.182514 -8.809882 2.240779 -31.701695 -0.695717 0.617700 17.580879 1.428756 7.077605 33.251561 4.295900 -0.000000 -58.972900 10.454209 -1.774760 1.802079 5.792705 -9.375619 -27.425632 2.520959 0.011824 6.783301 -0.036575 -2.083347 18.999005 -1.617700 -0.000000 -81.138799
10.108200 21.149217 0.885271 38.155224 -88.673537 -15.178499 -10.893318 2.240106 3.156541 -9.018615 2.096665 -32.430233 -0.811249 0.580959 16.546065 1.359061 7.027813 32.820335 4.284800 0.000001 -59.026400 10.385098 -1.665351 1.909222 5.965924 -8.983947 -28.240255 2.679619 0.144021 5.795739 0.056253 -1.659430 18.371733 -1.446500 -0.000000 -80.999600
9.967736 21.176427 0.873681 38.576928 -88.760938 -15.335398 -10.841639 2.143848 3.141476 -9.205726 1.924534 -33.155447 -0.934815 0.540959 15.511632 1.277060 6.857719 32.345201 4.194501 -0.000000 -58.977800 10.318479 -1.554585 2.012107 6.136867 -8.620878 -29.082763 2.829078 0.270017 4.895522 0.143588 -1.250023 17.811895 -1.285600 -0.000000 -80.751201
9.826956 21.191745 0.861965 39.130216 -88.846591 -15.627428 -10.785710 2.050524 3.139736 -9.372575 1.716128 -33.884261 -1.064339 0.497651 14.486885 1.184807 6.574190 31.869491 4.033800 0.000000 -58.857900 10.257949 -1.443681 2.107418 6.307484 -8.302681 -29.952487 2.968843 0.387254 4.063567 0.225998 -0.856733 17.393211 -1.135300 -0.000000 -80.459800
9.686054 21.195662 0.850076 39.859439 -88.926815 -16.097039 -10.724661 1.958918 3.154438 -9.514194 1.452912 -34.616027 -1.194810 0.450067 13.462451 1.088463 6.218637 31.468958 3.834900 0.000000 -58.951700 10.206632 -1.333100 2.192987 6.477306 -8.032602 -30.846788 3.097561 0.493639 3.277335 0.303070 -0.489590 17.185800 -0.998301 0.000000 -80.284700
9.545099 21.188004 0.837984 40.745846 -88.998976 -16.725242 -10.658942 1.868967 3.182118 -9.636062 1.150709 -35.362485 -1.325584 0.400273 12.461895 0.988103 5.787263 31.152471 3.595300 -0.000000 -58.969900 10.165704 -1.224082 2.267790 6.647596 -7.812833 -31.763960 3.215721 0.586884 2.533820 0.376593 -0.140822 17.216143 -0.868100 0.000000 -80.171900
9.404306 21.169124 0.825693 41.766715 -89.062749 -17.489258 -10.589409 1.779464 3.221202 -9.736190 0.809707 -36.122011 -1.453020 0.348566 11.483623 0.888408 5.316732 30.956133 3.338900 -0.000000 -59.017901 10.135102 -1.116865 2.331813 6.816872 -7.633902 -32.699971 3.323069 0.665934 1.828068 0.446579 0.188307 17.493895 -0.742000 -0.000000 -80.186299
9.263942 21.138960 0.813212 42.918527 -89.117593 -18.394529 -10.516813 1.690481 3.264690 -9.824315 0.455521 -36.892555 -1.577451 0.296954 10.546667 0.789487 4.811444 30.860000 3.065100 -0.000000 -58.857200 10.113808 -1.010890 2.381316 6.988205 -7.503097 -33.652086 3.422205 0.728530 1.183573 0.516448 0.528173 17.973398 -0.602901 -0.000000 -80.222400
9.123997 21.097610 0.800848 43.940785 -89.173040 -19.166926 -10.445668 1.597651 3.315301 -9.876219 0.068763 -37.668809 -1.690849 0.242928 9.617185 0.701671 4.357029 30.917404 2.827000 0.000001 -59.143600 10.096327 -0.908331 2.428555 7.151464 -7.355142 -34.604461 3.508374 0.780925 0.554579 0.576982 0.810036 18.665993 -0.480100 -0.000000 -80.569000
8.984903 21.044831 0.788563 44.895671 -89.228935 -19.893865 -10.375738 1.502854 3.359232 -9.919558 -0.293900 -38.442330 -1.799284 0.189961 8.736655 0.618851 3.915381 31.029623 2.594800 0.000000 -59.261000 10.080695 -0.807138 2.462607 7.318734 -7.228488 -35.555818 3.588668 0.819129 0.004961 0.636992 1.110707 19.444180 -0.337600 0.000000 -80.898800
8.846678 20.980666 0.776569 45.612997 -89.293765 -20.406442 -10.310022 1.404484 3.392681 -9.953039 -0.617258 -39.207387 -1.901291 0.137644 7.902277 0.543838 3.516345 31.173932 2.385500 -0.000000 -59.427399 10.061749 -0.708637 2.487373 7.492496 -7.099209 -36.495188 3.663647 0.846630 -0.469403 0.694135 1.413256 20.251447 -0.183800 0.000000 -81.266400
8.709139 20.904831 0.765000 46.001604 -89.373620 -20.617462 -10.250181 1.302493 3.411093 -9.982917 -0.880622 -39.956609 -1.997450 0.086001 7.118078 0.477085 3.172474 31.310143 2.206000 0.000000 -59.702399 10.035836 -0.613767 2.503147 7.679691 -6.961847 -37.414657 3.735675 0.865409 -0.859997 0.748990 1.720119 21.020029 -0.019599 -0.000000 -81.645800
8.572443 20.817078 0.753903 45.935871 -89.473128 -20.412027 -10.197559 1.197783 3.408190 -10.027609 -1.050799 -40.694189 -2.090914 0.037126 6.411513 0.415346 2.862136 31.379237 2.041700 -0.000000 -59.944500 9.999653 -0.523935 2.507892 7.894213 -6.826234 -38.312691 3.808831 0.875587 -1.147773 0.804533 2.048111 21.687818 0.160300 0.000000 -81.953801
8.436249 20.717527 0.743327 45.308372 -89.595467 -19.682320 -10.153267 1.091694 3.383217 -10.096386 -1.117960 -41.422079 -2.182019 -0.008012 5.792332 0.358570 2.585598 31.366183 1.893900 -0.000000 -60.226600 9.951513 -0.440821 2.500795 8.147174 -6.698585 -39.190214 3.885759 0.877256 -1.325697 0.862334 2.402081 22.230990 0.355800 0.000000 -82.193600
8.300510 20.606152 0.733189 43.939941 -89.740397 -18.252584 -10.118513 0.986107 3.335559 -10.204463 -1.071142 -42.153711 -2.271932 -0.046308 5.288616 0.304817 2.320310 31.258425 1.748800 -0.000000 -60.483300 9.890139 -0.366178 2.479517 8.452073 -6.594019 -40.055725 3.969392 0.868297 -1.379538 0.925221 2.797462 22.650828 0.573200 -0.000000 -82.346900
8.164847 20.482819 0.723331 41.686647 -89.904860 -15.971575 -10.094652 0.882920 3.271118 -10.351426 -0.930573 -42.896519 -2.357574 -0.075806 4.907992 0.256605 2.076420 31.094828 1.613700 0.000000 -60.858599 9.815738 -0.301379 2.442240 8.815412 -6.524293 -40.923041 4.060472 0.845336 -1.299081 0.994688 3.244398 22.986765 0.818500 0.000001 -82.469799
8.029328 20.347965 0.713549 -141.700440 -89.918369 167.409316 -10.084267 0.783767 3.191876 -10.550664 -0.702611 -43.673266 -2.438732 -0.090739 4.694621 0.211811 1.819933 30.889671 1.467400 0.000000 -61.142399 9.727233 -0.248215 2.385317 9.242621 -6.508884 -41.812943 4.159547 0.801822 -1.055317 1.073868 3.770207 23.283289 1.108200 0.000001 -82.542500
7.893573 20.201357 0.703694 -146.710038 -89.739473 172.399625 -10.095351 0.686297 3.111648 -10.779058 -0.447246 -44.498644 -2.506167 -0.088741 4.650151 0.177718 1.593812 30.731940 1.336800 -0.000000 -61.625299 9.619962 -0.210576 2.311843 9.720775 -6.538007 -42.750530 4.261996 0.732754 -0.643278 1.160441 4.364910 23.638055 1.444000 0.000000 -82.699400
7.757874 20.043264 0.693611 -154.152286 -89.583420 179.817391 -10.142824 0.580369 3.036934 -11.025801 -0.212544 -45.385846 -2.552661 -0.065318 4.803667 0.157725 1.411667 30.681156 1.229100 -0.000000 -62.319800 9.482292 -0.196927 2.222951 10.227317 -6.609877 -43.760747 4.361172 0.630024 -0.037129 1.252496 5.033965 24.121500 1.838100 0.000001 -82.970401
7.622226 19.873954 0.683043 -165.128487 -89.517794 -169.226829 -10.241795 0.441246 2.964000 -11.295548 -0.041696 -46.343347 -2.576721 -0.016977 5.214058 0.146422 1.252032 30.738484 1.131900 -0.000000 -62.818801 9.302801 -0.228682 2.126274 10.726140 -6.730281 -44.870566 4.445388 0.482228 0.796575 1.344164 5.783325 24.766641 2.306000 0.000001 -83.340500
7.486980 19.693396 0.672049 177.782479 -89.701952 -152.138894 -10.361249 0.224531 2.877560 -11.547788 -0.019028 -47.351603 -2.573348 0.048420 5.908898 0.135386 1.160118 30.971454 1.081200 -0.000000 -63.411100 9.118165 -0.339956 2.052650 11.175381 -6.883492 -46.103232 4.490319 0.274269 1.848805 1.412483 6.569349 25.603241 2.846100 0.000000 -83.861800
7.352534 19.501493 0.660483 -28.209224 -89.806177 53.869561 -10.268858 0.006895 2.762808 -11.666436 -0.150495 -48.409263 -2.545913 0.122139 6.925589 0.110020 1.145555 31.355932 1.093000 0.000000 -63.905500 9.155637 -0.454378 2.020535 11.632378 -7.007654 -47.443424 4.475786 -0.005032 3.134676 1.437699 7.369365 26.613888 3.462100 0.000000 -84.597800
